<svg width="106" height="106" viewBox="0 0 106 106" fill="none" xmlns="http://www.w3.org/2000/svg">
<g clip-path="url(#clip0_26_20)">
<path d="M0 53C0 38.9435 5.58391 25.4628 15.5233 15.5233C25.4628 5.58391 38.9435 0 53 0C67.0565 0 80.5372 5.58391 90.4767 15.5233C100.416 25.4628 106 38.9435 106 53C106 67.0565 100.416 80.5372 90.4767 90.4767C80.5372 100.416 67.0565 106 53 106C38.9435 106 25.4628 100.416 15.5233 90.4767C5.58391 80.5372 0 67.0565 0 53ZM49.6875 7.13513C45.2487 8.48662 40.8431 12.5676 37.1861 19.4245C35.9819 21.7044 34.9456 24.0692 34.0856 26.5H49.6875V7.13513ZM27.0963 26.5C28.2016 22.9813 29.6206 19.569 31.3363 16.3041C32.4893 14.1425 33.8118 12.0757 35.2914 10.123C27.084 13.5287 20.0222 19.2113 14.9394 26.5H27.0963ZM23.2405 49.6875C23.4392 43.8774 24.1547 38.3058 25.3075 33.125H11.0903C8.62607 38.3282 7.15228 43.9448 6.74425 49.6875H23.2405ZM32.1114 33.125C30.8083 38.5562 30.0581 44.1053 29.8721 49.6875H49.6875V33.125H32.1114ZM56.3125 33.125V49.6875H76.1212C75.9374 44.1055 75.1894 38.5564 73.8886 33.125H56.3125ZM29.8788 56.3125C30.0626 61.8945 30.8106 67.4436 32.1114 72.875H49.6875V56.3125H29.8788ZM56.3125 56.3125V72.875H73.8886C75.1275 67.8069 75.9159 62.222 76.1279 56.3125H56.3125ZM34.0856 79.5C35.0043 82.0617 36.0378 84.4202 37.1861 86.5755C40.8431 93.4324 45.2554 97.5068 49.6875 98.8649V79.5H34.0856ZM35.2914 95.877C33.8118 93.9243 32.4893 91.8575 31.3363 89.6959C29.6206 86.431 28.2016 83.0187 27.0963 79.5H14.9394C20.0139 86.7964 27.0782 92.481 35.2914 95.877ZM25.3075 72.875C24.1113 67.4294 23.4193 61.8851 23.2405 56.3125H6.74425C7.155 62.2088 8.67212 67.7936 11.0903 72.875H25.3075ZM70.7086 95.877C78.9218 92.481 85.9861 86.7964 91.0606 79.5H78.9037C77.7984 83.0187 76.3794 86.431 74.6637 89.6959C73.5107 91.8575 72.1882 93.9243 70.7086 95.877ZM56.3125 79.5V98.8649C60.7513 97.5134 65.1569 93.4324 68.8139 86.5755C69.9622 84.4246 70.9957 82.0661 71.9144 79.5H56.3125ZM80.6925 72.875H94.9098C97.3279 67.7936 98.845 62.2088 99.2558 56.3125H82.7595C82.5807 61.8851 81.8887 67.4294 80.6925 72.875ZM99.2558 49.6875C98.8477 43.9448 97.3739 38.3282 94.9098 33.125H80.6925C81.8453 38.3058 82.5607 43.8774 82.7595 49.6875H99.2558ZM74.6637 16.3041C76.3001 19.3781 77.7245 22.7966 78.9037 26.5H91.0606C85.9861 19.2036 78.9218 13.519 70.7086 10.123C72.1529 12.0045 73.4779 14.0848 74.6637 16.3041ZM71.9144 26.5C71.0544 24.0692 70.0181 21.7044 68.8139 19.4245C65.1569 12.5676 60.7513 8.49325 56.3125 7.13513V26.5H71.9144Z" fill="black"/>
</g>
<defs>
<clipPath id="clip0_26_20">
<rect width="106" height="106" fill="white"/>
</clipPath>
</defs>
</svg>
