<svg width="106" height="106" viewBox="0 0 106 106" fill="none" xmlns="http://www.w3.org/2000/svg">
<path d="M53 101.583C44.7556 101.583 37.1736 99.7062 30.2542 95.952C23.3347 92.1979 17.6667 87.1923 13.25 80.9354V88.3333C13.25 89.5847 12.826 90.6344 11.978 91.4824C11.13 92.3304 10.0818 92.7529 8.83333 92.7499C7.58195 92.7499 6.53372 92.326 5.68867 91.478C4.84361 90.63 4.41961 89.5817 4.41667 88.3333V70.6666C4.41667 69.4152 4.84067 68.367 5.68867 67.522C6.53667 66.6769 7.58489 66.2529 8.83333 66.25H26.5C27.7514 66.25 28.8011 66.674 29.6491 67.522C30.4971 68.37 30.9196 69.4182 30.9167 70.6666C30.9167 71.918 30.4927 72.9677 29.6447 73.8157C28.7967 74.6637 27.7484 75.0862 26.5 75.0833H19.9854C23.5187 80.3833 28.1754 84.6527 33.9553 87.8916C39.7353 91.1305 46.0835 92.7499 53 92.7499C63.3792 92.7499 72.3052 89.2902 79.7782 82.3708C87.2512 75.4513 91.5016 66.9493 92.5292 56.8645C92.6764 55.6868 93.1917 54.7475 94.075 54.0467C94.9583 53.3459 95.9889 52.997 97.1667 53C98.418 53 99.4854 53.3871 100.369 54.1615C101.252 54.9359 101.62 55.8737 101.473 56.975C100.958 63.2319 99.3382 69.0648 96.6146 74.4738C93.891 79.8827 90.3576 84.5938 86.0146 88.6071C81.6715 92.6204 76.6851 95.7857 71.0553 98.103C65.4255 100.42 59.4071 101.58 53 101.583ZM53 13.25C42.6208 13.25 33.6962 16.7097 26.2262 23.6291C18.7561 30.5486 14.5043 39.0507 13.4708 49.1354C13.3236 50.3132 12.8083 51.2524 11.925 51.9532C11.0417 52.654 10.0111 53.0029 8.83333 53C7.58195 53 6.51458 52.6142 5.63125 51.8428C4.74792 51.0713 4.37986 50.1321 4.52708 49.025C5.04236 42.768 6.66181 36.9351 9.38542 31.5261C12.109 26.1172 15.6424 21.4061 19.9854 17.3928C24.3285 13.3795 29.3164 10.2142 34.9491 7.89696C40.5818 5.57968 46.5988 4.41957 53 4.41663C61.2444 4.41663 68.8264 6.29371 75.7458 10.0479C82.6653 13.802 88.3333 18.8076 92.75 25.0645V17.6666C92.75 16.4152 93.174 15.367 94.022 14.522C94.87 13.6769 95.9182 13.2529 97.1667 13.25C98.418 13.25 99.4677 13.674 100.316 14.522C101.164 15.37 101.586 16.4182 101.583 17.6666V35.3333C101.583 36.5847 101.159 37.6344 100.311 38.4824C99.4633 39.3304 98.4151 39.7529 97.1667 39.75H79.5C78.2486 39.75 77.2004 39.326 76.3553 38.478C75.5103 37.63 75.0833 35.3333 75.0833 35.3333C75.0833 34.0819 75.5073 33.0337 76.3553 32.1886C77.2033 31.3436 78.2515 30.9196 79.5 30.9166H86.0146C82.4812 25.6166 77.8261 21.3472 72.0491 18.1083C66.2721 14.8694 59.9224 13.25 53 13.25Z" fill="black"/>
</svg>
