<svg width="106" height="106" viewBox="0 0 106 106" fill="none" xmlns="http://www.w3.org/2000/svg">
<path d="M61.8334 66.2501C61.8334 71.1526 57.9025 75.0834 53 75.0834C50.6573 75.0834 48.4105 74.1528 46.7539 72.4962C45.0973 70.8396 44.1667 68.5928 44.1667 66.2501C44.1667 61.3476 48.0975 57.4167 53 57.4167C55.3428 57.4167 57.5896 58.3474 59.2461 60.004C60.9027 61.6605 61.8334 63.9073 61.8334 66.2501ZM57.8142 88.3334C58.3442 91.5134 59.4484 94.4726 60.9942 97.1667H26.5C24.1573 97.1667 21.9105 96.2361 20.2539 94.5795C18.5973 92.923 17.6667 90.6762 17.6667 88.3334V44.1667C17.6667 39.2642 21.5975 35.3334 26.5 35.3334H30.9167V26.5001C30.9167 14.3101 40.81 4.41675 53 4.41675C65.19 4.41675 75.0834 14.3101 75.0834 26.5001V35.3334H79.5C81.8428 35.3334 84.0896 36.2641 85.7461 37.9206C87.4027 39.5772 88.3334 41.824 88.3334 44.1667V57.8142C86.8759 57.5934 85.4184 57.4167 83.9167 57.4167C82.415 57.4167 80.9575 57.5934 79.5 57.8142V44.1667H26.5V88.3334H57.8142ZM39.75 35.3334H66.25V26.5001C66.25 19.1684 60.3317 13.2501 53 13.2501C45.6684 13.2501 39.75 19.1684 39.75 26.5001V35.3334ZM94.2517 69.9601L78.3959 85.8159L71.3734 78.7934L66.25 83.9167L78.3959 97.1667L99.375 76.1876L94.2517 69.9601Z" fill="black"/>
</svg>
