<svg width="106" height="106" viewBox="0 0 106 106" fill="none" xmlns="http://www.w3.org/2000/svg">
<path d="M53 88.3333C44.8004 88.3333 36.9366 85.076 31.1386 79.278C25.3406 73.48 22.0833 65.6162 22.0833 57.4166C22.0833 49.217 25.3406 41.3532 31.1386 35.5552C36.9366 29.7572 44.8004 26.5 53 26.5C61.1996 26.5 69.0634 29.7572 74.8614 35.5552C80.6594 41.3532 83.9167 49.217 83.9167 57.4166C83.9167 65.6162 80.6594 73.48 74.8614 79.278C69.0634 85.076 61.1996 88.3333 53 88.3333ZM84.0492 32.6391L90.3208 26.3675C88.3333 24.115 86.3458 22.0833 84.0933 20.14L77.8217 26.5C70.9758 20.935 62.3633 17.6666 53 17.6666C42.4576 17.6666 32.3471 21.8546 24.8925 29.3091C17.4379 36.7637 13.25 46.8743 13.25 57.4166C13.25 67.959 17.4379 78.0695 24.8925 85.5241C32.3471 92.9787 42.4576 97.1666 53 97.1666C75.0833 97.1666 92.75 79.3675 92.75 57.4166C92.75 48.0533 89.4817 39.4408 84.0492 32.6391ZM48.5833 61.8333H57.4167V35.3333H48.5833M66.25 4.41663H39.75V13.25H66.25V4.41663Z" fill="black"/>
</svg>
