<svg width="40" height="40" viewBox="0 0 40 40" fill="none" xmlns="http://www.w3.org/2000/svg">
<path d="M20 6.66668C18.2319 6.66668 16.5362 7.36906 15.286 8.6193C14.0357 9.86954 13.3333 11.5652 13.3333 13.3333C13.3333 15.1015 14.0357 16.7971 15.286 18.0474C16.5362 19.2976 18.2319 20 20 20C21.7681 20 23.4638 19.2976 24.714 18.0474C25.9643 16.7971 26.6667 15.1015 26.6667 13.3333C26.6667 11.5652 25.9643 9.86954 24.714 8.6193C23.4638 7.36906 21.7681 6.66668 20 6.66668ZM10 13.3333C10 10.6812 11.0536 8.13764 12.9289 6.26228C14.8043 4.38691 17.3478 3.33334 20 3.33334C22.6522 3.33334 25.1957 4.38691 27.0711 6.26228C28.9464 8.13764 30 10.6812 30 13.3333C30 15.9855 28.9464 18.529 27.0711 20.4044C25.1957 22.2798 22.6522 23.3333 20 23.3333C17.3478 23.3333 14.8043 22.2798 12.9289 20.4044C11.0536 18.529 10 15.9855 10 13.3333ZM13.3333 30C12.0073 30 10.7355 30.5268 9.7978 31.4645C8.86012 32.4022 8.33333 33.6739 8.33333 35C8.33333 35.442 8.15774 35.866 7.84518 36.1785C7.53262 36.4911 7.10869 36.6667 6.66667 36.6667C6.22464 36.6667 5.80072 36.4911 5.48816 36.1785C5.17559 35.866 5 35.442 5 35C5 32.7899 5.87797 30.6703 7.44078 29.1075C9.00358 27.5446 11.1232 26.6667 13.3333 26.6667H26.6667C28.8768 26.6667 30.9964 27.5446 32.5592 29.1075C34.122 30.6703 35 32.7899 35 35C35 35.442 34.8244 35.866 34.5118 36.1785C34.1993 36.4911 33.7754 36.6667 33.3333 36.6667C32.8913 36.6667 32.4674 36.4911 32.1548 36.1785C31.8423 35.866 31.6667 35.442 31.6667 35C31.6667 33.6739 31.1399 32.4022 30.2022 31.4645C29.2645 30.5268 27.9927 30 26.6667 30H13.3333Z" fill="black"/>
</svg>
